<svg width="226" height="53" viewBox="0 0 226 53" fill="none" xmlns="http://www.w3.org/2000/svg">
<g filter="url(#filter0_d_104_14)">
<path d="M90.326 14.728V40H84.17V14.728H90.326ZM103.751 40.252C101.903 40.252 100.247 39.952 98.7832 39.352C97.3192 38.752 96.1432 37.864 95.2552 36.688C94.3912 35.512 93.9352 34.096 93.8872 32.44H100.439C100.535 33.376 100.859 34.096 101.411 34.6C101.963 35.08 102.683 35.32 103.571 35.32C104.483 35.32 105.203 35.116 105.731 34.708C106.259 34.276 106.523 33.688 106.523 32.944C106.523 32.32 106.307 31.804 105.875 31.396C105.467 30.988 104.951 30.652 104.327 30.388C103.727 30.124 102.863 29.824 101.735 29.488C100.103 28.984 98.7712 28.48 97.7392 27.976C96.7072 27.472 95.8192 26.728 95.0752 25.744C94.3312 24.76 93.9592 23.476 93.9592 21.892C93.9592 19.54 94.8112 17.704 96.5152 16.384C98.2192 15.04 100.439 14.368 103.175 14.368C105.959 14.368 108.203 15.04 109.907 16.384C111.611 17.704 112.523 19.552 112.643 21.928H105.983C105.935 21.112 105.635 20.476 105.083 20.02C104.531 19.54 103.823 19.3 102.959 19.3C102.215 19.3 101.615 19.504 101.159 19.912C100.703 20.296 100.475 20.86 100.475 21.604C100.475 22.42 100.859 23.056 101.627 23.512C102.395 23.968 103.595 24.46 105.227 24.988C106.859 25.54 108.179 26.068 109.187 26.572C110.219 27.076 111.107 27.808 111.851 28.768C112.595 29.728 112.967 30.964 112.967 32.476C112.967 33.916 112.595 35.224 111.851 36.4C111.131 37.576 110.075 38.512 108.683 39.208C107.291 39.904 105.647 40.252 103.751 40.252ZM138.464 14.728V40H132.308V29.596H122.732V40H116.576V14.728H122.732V24.628H132.308V14.728H138.464ZM155.616 40L150.36 30.46H148.884V40H142.728V14.728H153.06C155.052 14.728 156.744 15.076 158.136 15.772C159.552 16.468 160.608 17.428 161.304 18.652C162 19.852 162.348 21.196 162.348 22.684C162.348 24.364 161.868 25.864 160.908 27.184C159.972 28.504 158.58 29.44 156.732 29.992L162.564 40H155.616ZM148.884 26.104H152.7C153.828 26.104 154.668 25.828 155.22 25.276C155.796 24.724 156.084 23.944 156.084 22.936C156.084 21.976 155.796 21.22 155.22 20.668C154.668 20.116 153.828 19.84 152.7 19.84H148.884V26.104ZM181.764 35.536H172.332L170.82 40H164.376L173.52 14.728H180.648L189.792 40H183.276L181.764 35.536ZM180.18 30.784L177.048 21.532L173.952 30.784H180.18ZM210.575 14.728V19.66H203.879V40H197.723V19.66H191.027V14.728H210.575Z" fill="white"/>
</g>
<g filter="url(#filter1_d_104_14)">
<path d="M70 18.5499H53.5C51.475 18.5499 49.8333 20.0274 49.8333 21.8499V36.6999C49.8333 38.5225 51.475 39.9999 53.5 39.9999H70C72.025 39.9999 73.6667 38.5225 73.6667 36.6999V21.8499C73.6667 20.0274 72.025 18.5499 70 18.5499Z" fill="#F9F9F9" stroke="#74DBEF" stroke-width="4" stroke-linecap="round" stroke-linejoin="round"/>
<path d="M42.5 28.45H40.6667C39.6942 28.45 38.7616 28.1023 38.0739 27.4835C37.3863 26.8646 37 26.0252 37 25.15V10.3C37 9.42479 37.3863 8.58542 38.0739 7.96655C38.7616 7.34768 39.6942 7 40.6667 7H57.1667C58.1391 7 59.0718 7.34768 59.7594 7.96655C60.447 8.58542 60.8333 9.42479 60.8333 10.3V11.95" fill="#F9F9F9"/>
<path d="M42.5 28.45H40.6667C39.6942 28.45 38.7616 28.1023 38.0739 27.4835C37.3863 26.8646 37 26.0252 37 25.15V10.3C37 9.42479 37.3863 8.58542 38.0739 7.96655C38.7616 7.34768 39.6942 7 40.6667 7H57.1667C58.1391 7 59.0718 7.34768 59.7594 7.96655C60.447 8.58542 60.8333 9.42479 60.8333 10.3V11.95" stroke="#74DBEF" stroke-width="4" stroke-linecap="round" stroke-linejoin="round"/>
</g>
<defs>
<filter id="filter0_d_104_14" x="80.17" y="14.368" width="134.405" height="33.8839" filterUnits="userSpaceOnUse" color-interpolation-filters="sRGB">
<feFlood flood-opacity="0" result="BackgroundImageFix"/>
<feColorMatrix in="SourceAlpha" type="matrix" values="0 0 0 0 0 0 0 0 0 0 0 0 0 0 0 0 0 0 127 0" result="hardAlpha"/>
<feOffset dy="4"/>
<feGaussianBlur stdDeviation="2"/>
<feComposite in2="hardAlpha" operator="out"/>
<feColorMatrix type="matrix" values="0 0 0 0 0 0 0 0 0 0 0 0 0 0 0 0 0 0 0.25 0"/>
<feBlend mode="normal" in2="BackgroundImageFix" result="effect1_dropShadow_104_14"/>
<feBlend mode="normal" in="SourceGraphic" in2="effect1_dropShadow_104_14" result="shape"/>
</filter>
<filter id="filter1_d_104_14" x="31" y="5" width="48.6667" height="44.9999" filterUnits="userSpaceOnUse" color-interpolation-filters="sRGB">
<feFlood flood-opacity="0" result="BackgroundImageFix"/>
<feColorMatrix in="SourceAlpha" type="matrix" values="0 0 0 0 0 0 0 0 0 0 0 0 0 0 0 0 0 0 127 0" result="hardAlpha"/>
<feOffset dy="4"/>
<feGaussianBlur stdDeviation="2"/>
<feComposite in2="hardAlpha" operator="out"/>
<feColorMatrix type="matrix" values="0 0 0 0 0 0 0 0 0 0 0 0 0 0 0 0 0 0 0.25 0"/>
<feBlend mode="normal" in2="BackgroundImageFix" result="effect1_dropShadow_104_14"/>
<feBlend mode="normal" in="SourceGraphic" in2="effect1_dropShadow_104_14" result="shape"/>
</filter>
</defs>
</svg>
